<?xml version="1.0" encoding="UTF-8" standalone="no"?>
<!DOCTYPE score-partwise PUBLIC
    "-//Recordare//DTD MusicXML 4.0 Partwise//EN"
    "http://www.musicxml.org/dtds/partwise.dtd">
<score-partwise version="Time signatures">
  <identification>
    <encoding>
      <supports element="accidental" type="yes" />
      <supports element="beam" type="yes" />
      <supports element="stem" type="yes" />
    </encoding>
  </identification>
  <defaults>
    <scaling>
      <millimeters>7.2319</millimeters>
      <tenths>40</tenths>
    </scaling>
    <page-layout>
      <page-height>1643</page-height>
      <page-width>1161</page-width>
      <page-margins type="both">
        <left-margin>140</left-margin>
        <right-margin>70</right-margin>
        <top-margin>70</top-margin>
        <bottom-margin>70</bottom-margin>
      </page-margins>
    </page-layout>
    <system-layout>
      <system-margins>
        <left-margin>0</left-margin>
        <right-margin>0</right-margin>
      </system-margins>
      <system-distance>117</system-distance>
      <top-system-distance>117</top-system-distance>
    </system-layout>
  </defaults>
  <part-list>
    <score-part id="p1">
      <part-name />
    </score-part>
  </part-list>
  <part id="p1">
    <measure number="1">
      <attributes>
        <divisions>1</divisions>
        <key>
          <fifths>0</fifths>
        </key>
        <time>
          <beats>4</beats>
          <beat-type>4</beat-type>
        </time>
        <clef>
          <sign>G</sign>
          <line>2</line>
        </clef>
      </attributes>
      <note>
        <pitch>
          <step>A</step>
          <octave>4</octave>
        </pitch>
        <duration>1</duration>
        <voice>1</voice>
        <type>quarter</type>
        <notehead>slash</notehead>
        <lyric>
          <text>slash</text>
        </lyric>
      </note>
      <note>
        <pitch>
          <step>C</step>
          <octave>5</octave>
        </pitch>
        <duration>1</duration>
        <voice>1</voice>
        <type>quarter</type>
        <notehead>slash</notehead>
      </note>
      <note>
        <pitch>
          <step>A</step>
          <octave>4</octave>
        </pitch>
        <duration>1</duration>
        <voice>1</voice>
        <type>quarter</type>
        <notehead>slash</notehead>
      </note>
      <note>
        <pitch>
          <step>C</step>
          <octave>5</octave>
        </pitch>
        <duration>1</duration>
        <voice>1</voice>
        <type>quarter</type>
        <notehead>slash</notehead>
      </note>
    </measure>
    <measure number="2">
      <attributes>
        <divisions>1</divisions>
      </attributes>
      <note>
        <pitch>
          <step>A</step>
          <octave>4</octave>
        </pitch>
        <duration>1</duration>
        <voice>1</voice>
        <type>quarter</type>
        <notehead>triangle</notehead>
        <lyric>
          <text>triangle</text>
        </lyric>
      </note>
      <note>
        <pitch>
          <step>C</step>
          <octave>5</octave>
        </pitch>
        <duration>1</duration>
        <voice>1</voice>
        <type>quarter</type>
        <notehead>triangle</notehead>
      </note>
      <note>
        <pitch>
          <step>A</step>
          <octave>4</octave>
        </pitch>
        <duration>1</duration>
        <voice>1</voice>
        <type>quarter</type>
        <notehead>triangle</notehead>
      </note>
      <note>
        <pitch>
          <step>C</step>
          <octave>5</octave>
        </pitch>
        <duration>1</duration>
        <voice>1</voice>
        <type>quarter</type>
        <notehead>triangle</notehead>
      </note>
    </measure>
    <measure number="3">
      <attributes>
        <divisions>1</divisions>
      </attributes>
      <note>
        <pitch>
          <step>A</step>
          <octave>4</octave>
        </pitch>
        <duration>1</duration>
        <voice>1</voice>
        <type>quarter</type>
        <notehead>diamond</notehead>
        <lyric>
          <text>diamond</text>
        </lyric>
      </note>
      <note>
        <pitch>
          <step>C</step>
          <octave>5</octave>
        </pitch>
        <duration>1</duration>
        <voice>1</voice>
        <type>quarter</type>
        <notehead>diamond</notehead>
      </note>
      <note>
        <pitch>
          <step>A</step>
          <octave>4</octave>
        </pitch>
        <duration>1</duration>
        <voice>1</voice>
        <type>quarter</type>
        <notehead>diamond</notehead>
      </note>
      <note>
        <pitch>
          <step>C</step>
          <octave>5</octave>
        </pitch>
        <duration>1</duration>
        <voice>1</voice>
        <type>quarter</type>
        <notehead>diamond</notehead>
      </note>
    </measure>
    <measure number="4">
      <attributes>
        <divisions>1</divisions>
      </attributes>
      <note>
        <pitch>
          <step>A</step>
          <octave>4</octave>
        </pitch>
        <duration>1</duration>
        <voice>1</voice>
        <type>quarter</type>
        <notehead>square</notehead>
        <lyric>
          <text>square</text>
        </lyric>
      </note>
      <note>
        <pitch>
          <step>C</step>
          <octave>5</octave>
        </pitch>
        <duration>1</duration>
        <voice>1</voice>
        <type>quarter</type>
        <notehead>square</notehead>
      </note>
      <note>
        <pitch>
          <step>A</step>
          <octave>4</octave>
        </pitch>
        <duration>1</duration>
        <voice>1</voice>
        <type>quarter</type>
        <notehead>square</notehead>
      </note>
      <note>
        <pitch>
          <step>C</step>
          <octave>5</octave>
        </pitch>
        <duration>1</duration>
        <voice>1</voice>
        <type>quarter</type>
        <notehead>square</notehead>
      </note>
    </measure>
    <measure number="5">
      <attributes>
        <divisions>1</divisions>
      </attributes>
      <note>
        <pitch>
          <step>A</step>
          <octave>4</octave>
        </pitch>
        <duration>1</duration>
        <voice>1</voice>
        <type>quarter</type>
        <notehead>rectangle</notehead>
        <lyric>
          <text>rectangle</text>
        </lyric>
      </note>
      <note>
        <pitch>
          <step>C</step>
          <octave>5</octave>
        </pitch>
        <duration>1</duration>
        <voice>1</voice>
        <type>quarter</type>
        <notehead>rectangle</notehead>
      </note>
      <note>
        <pitch>
          <step>A</step>
          <octave>4</octave>
        </pitch>
        <duration>1</duration>
        <voice>1</voice>
        <type>quarter</type>
        <notehead>rectangle</notehead>
      </note>
      <note>
        <pitch>
          <step>C</step>
          <octave>5</octave>
        </pitch>
        <duration>1</duration>
        <voice>1</voice>
        <type>quarter</type>
        <notehead>rectangle</notehead>
      </note>
    </measure>
    <measure number="6">
      <attributes>
        <divisions>1</divisions>
      </attributes>
      <note>
        <pitch>
          <step>A</step>
          <octave>4</octave>
        </pitch>
        <duration>1</duration>
        <voice>1</voice>
        <type>quarter</type>
        <notehead>cross</notehead>
        <lyric>
          <text>cross</text>
        </lyric>
      </note>
      <note>
        <pitch>
          <step>C</step>
          <octave>5</octave>
        </pitch>
        <duration>1</duration>
        <voice>1</voice>
        <type>quarter</type>
        <notehead>cross</notehead>
      </note>
      <note>
        <pitch>
          <step>A</step>
          <octave>4</octave>
        </pitch>
        <duration>1</duration>
        <voice>1</voice>
        <type>quarter</type>
        <notehead>cross</notehead>
      </note>
      <note>
        <pitch>
          <step>C</step>
          <octave>5</octave>
        </pitch>
        <duration>1</duration>
        <voice>1</voice>
        <type>quarter</type>
        <notehead>cross</notehead>
      </note>
    </measure>
    <measure number="7">
      <attributes>
        <divisions>1</divisions>
      </attributes>
      <note>
        <pitch>
          <step>A</step>
          <octave>4</octave>
        </pitch>
        <duration>1</duration>
        <voice>1</voice>
        <type>quarter</type>
        <notehead>x</notehead>
        <lyric>
          <text>x</text>
        </lyric>
      </note>
      <note>
        <pitch>
          <step>C</step>
          <octave>5</octave>
        </pitch>
        <duration>1</duration>
        <voice>1</voice>
        <type>quarter</type>
        <notehead>x</notehead>
      </note>
      <note>
        <pitch>
          <step>A</step>
          <octave>4</octave>
        </pitch>
        <duration>1</duration>
        <voice>1</voice>
        <type>quarter</type>
        <notehead>x</notehead>
      </note>
      <note>
        <pitch>
          <step>C</step>
          <octave>5</octave>
        </pitch>
        <duration>1</duration>
        <voice>1</voice>
        <type>quarter</type>
        <notehead>x</notehead>
      </note>
    </measure>
    <measure number="8">
      <attributes>
        <divisions>1</divisions>
      </attributes>
      <note>
        <pitch>
          <step>A</step>
          <octave>4</octave>
        </pitch>
        <duration>1</duration>
        <voice>1</voice>
        <type>quarter</type>
        <notehead>circle dot</notehead>
        <lyric>
          <text>circle dot</text>
        </lyric>
      </note>
      <note>
        <pitch>
          <step>C</step>
          <octave>5</octave>
        </pitch>
        <duration>1</duration>
        <voice>1</voice>
        <type>quarter</type>
        <notehead>circle dot</notehead>
      </note>
      <note>
        <pitch>
          <step>A</step>
          <octave>4</octave>
        </pitch>
        <duration>1</duration>
        <voice>1</voice>
        <type>quarter</type>
        <notehead>circle dot</notehead>
      </note>
      <note>
        <pitch>
          <step>C</step>
          <octave>5</octave>
        </pitch>
        <duration>1</duration>
        <voice>1</voice>
        <type>quarter</type>
        <notehead>circle dot</notehead>
      </note>
    </measure>
    <measure number="9">
      <attributes>
        <divisions>1</divisions>
      </attributes>
      <note>
        <pitch>
          <step>A</step>
          <octave>4</octave>
        </pitch>
        <duration>1</duration>
        <voice>1</voice>
        <type>quarter</type>
        <notehead>circle-x</notehead>
        <lyric>
          <text>circle-x</text>
        </lyric>
      </note>
      <note>
        <pitch>
          <step>C</step>
          <octave>5</octave>
        </pitch>
        <duration>1</duration>
        <voice>1</voice>
        <type>quarter</type>
        <notehead>circle-x</notehead>
      </note>
      <note>
        <pitch>
          <step>A</step>
          <octave>4</octave>
        </pitch>
        <duration>1</duration>
        <voice>1</voice>
        <type>quarter</type>
        <notehead>circle-x</notehead>
      </note>
      <note>
        <pitch>
          <step>C</step>
          <octave>5</octave>
        </pitch>
        <duration>1</duration>
        <voice>1</voice>
        <type>quarter</type>
        <notehead>circle-x</notehead>
      </note>
    </measure>
    <measure number="10">
      <attributes>
        <divisions>1</divisions>
      </attributes>
      <note>
        <pitch>
          <step>A</step>
          <octave>4</octave>
        </pitch>
        <duration>1</duration>
        <voice>1</voice>
        <type>quarter</type>
        <notehead>circled</notehead>
        <lyric>
          <text>circled</text>
        </lyric>
      </note>
      <note>
        <pitch>
          <step>C</step>
          <octave>5</octave>
        </pitch>
        <duration>1</duration>
        <voice>1</voice>
        <type>quarter</type>
        <notehead>circled</notehead>
      </note>
      <note>
        <pitch>
          <step>A</step>
          <octave>4</octave>
        </pitch>
        <duration>1</duration>
        <voice>1</voice>
        <type>quarter</type>
        <notehead>circled</notehead>
      </note>
      <note>
        <pitch>
          <step>C</step>
          <octave>5</octave>
        </pitch>
        <duration>1</duration>
        <voice>1</voice>
        <type>quarter</type>
        <notehead>circled</notehead>
      </note>
    </measure>
    <measure number="11">
      <attributes>
        <divisions>1</divisions>
      </attributes>
      <note>
        <pitch>
          <step>A</step>
          <octave>4</octave>
        </pitch>
        <duration>1</duration>
        <voice>1</voice>
        <type>quarter</type>
        <notehead>inverted triangle</notehead>
        <lyric>
          <text>inverted triangle</text>
        </lyric>
      </note>
      <note>
        <pitch>
          <step>C</step>
          <octave>5</octave>
        </pitch>
        <duration>1</duration>
        <voice>1</voice>
        <type>quarter</type>
        <notehead>inverted triangle</notehead>
      </note>
      <note>
        <pitch>
          <step>A</step>
          <octave>4</octave>
        </pitch>
        <duration>1</duration>
        <voice>1</voice>
        <type>quarter</type>
        <notehead>inverted triangle</notehead>
      </note>
      <note>
        <pitch>
          <step>C</step>
          <octave>5</octave>
        </pitch>
        <duration>1</duration>
        <voice>1</voice>
        <type>quarter</type>
        <notehead>inverted triangle</notehead>
      </note>
    </measure>
    <measure number="12">
      <attributes>
        <divisions>1</divisions>
      </attributes>
      <note>
        <pitch>
          <step>A</step>
          <octave>4</octave>
        </pitch>
        <duration>1</duration>
        <voice>1</voice>
        <type>quarter</type>
        <notehead>left triangle</notehead>
        <lyric>
          <text>left triangle</text>
        </lyric>
      </note>
      <note>
        <pitch>
          <step>C</step>
          <octave>5</octave>
        </pitch>
        <duration>1</duration>
        <voice>1</voice>
        <type>quarter</type>
        <notehead>left triangle</notehead>
      </note>
      <note>
        <pitch>
          <step>A</step>
          <octave>4</octave>
        </pitch>
        <duration>1</duration>
        <voice>1</voice>
        <type>quarter</type>
        <notehead>left triangle</notehead>
      </note>
      <note>
        <pitch>
          <step>C</step>
          <octave>5</octave>
        </pitch>
        <duration>1</duration>
        <voice>1</voice>
        <type>quarter</type>
        <notehead>left triangle</notehead>
      </note>
    </measure>
    <measure number="13">
      <attributes>
        <divisions>1</divisions>
      </attributes>
      <note>
        <pitch>
          <step>A</step>
          <octave>4</octave>
        </pitch>
        <duration>1</duration>
        <voice>1</voice>
        <type>quarter</type>
        <notehead>arrow down</notehead>
        <lyric>
          <text>arrow down</text>
        </lyric>
      </note>
      <note>
        <pitch>
          <step>C</step>
          <octave>5</octave>
        </pitch>
        <duration>1</duration>
        <voice>1</voice>
        <type>quarter</type>
        <notehead>arrow down</notehead>
      </note>
      <note>
        <pitch>
          <step>A</step>
          <octave>4</octave>
        </pitch>
        <duration>1</duration>
        <voice>1</voice>
        <type>quarter</type>
        <notehead>arrow down</notehead>
      </note>
      <note>
        <pitch>
          <step>C</step>
          <octave>5</octave>
        </pitch>
        <duration>1</duration>
        <voice>1</voice>
        <type>quarter</type>
        <notehead>arrow down</notehead>
      </note>
    </measure>
    <measure number="14">
      <attributes>
        <divisions>1</divisions>
      </attributes>
      <note>
        <pitch>
          <step>A</step>
          <octave>4</octave>
        </pitch>
        <duration>1</duration>
        <voice>1</voice>
        <type>quarter</type>
        <notehead>arrow up</notehead>
        <lyric>
          <text>arrow up</text>
        </lyric>
      </note>
      <note>
        <pitch>
          <step>C</step>
          <octave>5</octave>
        </pitch>
        <duration>1</duration>
        <voice>1</voice>
        <type>quarter</type>
        <notehead>arrow up</notehead>
      </note>
      <note>
        <pitch>
          <step>A</step>
          <octave>4</octave>
        </pitch>
        <duration>1</duration>
        <voice>1</voice>
        <type>quarter</type>
        <notehead>arrow up</notehead>
      </note>
      <note>
        <pitch>
          <step>C</step>
          <octave>5</octave>
        </pitch>
        <duration>1</duration>
        <voice>1</voice>
        <type>quarter</type>
        <notehead>arrow up</notehead>
      </note>
    </measure>
    <measure number="15">
      <attributes>
        <divisions>1</divisions>
      </attributes>
      <note>
        <pitch>
          <step>A</step>
          <octave>4</octave>
        </pitch>
        <duration>1</duration>
        <voice>1</voice>
        <type>quarter</type>
        <notehead>slashed</notehead>
        <lyric>
          <text>slashed</text>
        </lyric>
      </note>
      <note>
        <pitch>
          <step>C</step>
          <octave>5</octave>
        </pitch>
        <duration>1</duration>
        <voice>1</voice>
        <type>quarter</type>
        <notehead>slashed</notehead>
      </note>
      <note>
        <pitch>
          <step>A</step>
          <octave>4</octave>
        </pitch>
        <duration>1</duration>
        <voice>1</voice>
        <type>quarter</type>
        <notehead>slashed</notehead>
      </note>
      <note>
        <pitch>
          <step>C</step>
          <octave>5</octave>
        </pitch>
        <duration>1</duration>
        <voice>1</voice>
        <type>quarter</type>
        <notehead>slashed</notehead>
      </note>
    </measure>
    <measure number="16">
      <attributes>
        <divisions>1</divisions>
      </attributes>
      <note>
        <pitch>
          <step>A</step>
          <octave>4</octave>
        </pitch>
        <duration>1</duration>
        <voice>1</voice>
        <type>quarter</type>
        <notehead>back slashed</notehead>
        <lyric>
          <text>back slashed</text>
        </lyric>
      </note>
      <note>
        <pitch>
          <step>C</step>
          <octave>5</octave>
        </pitch>
        <duration>1</duration>
        <voice>1</voice>
        <type>quarter</type>
        <notehead>back slashed</notehead>
      </note>
      <note>
        <pitch>
          <step>A</step>
          <octave>4</octave>
        </pitch>
        <duration>1</duration>
        <voice>1</voice>
        <type>quarter</type>
        <notehead>back slashed</notehead>
      </note>
      <note>
        <pitch>
          <step>C</step>
          <octave>5</octave>
        </pitch>
        <duration>1</duration>
        <voice>1</voice>
        <type>quarter</type>
        <notehead>back slashed</notehead>
      </note>
    </measure>
    <measure number="17">
      <attributes>
        <divisions>1</divisions>
      </attributes>
      <note>
        <pitch>
          <step>A</step>
          <octave>4</octave>
        </pitch>
        <duration>1</duration>
        <voice>1</voice>
        <type>quarter</type>
        <notehead>normal</notehead>
        <lyric>
          <text>normal</text>
        </lyric>
      </note>
      <note>
        <pitch>
          <step>C</step>
          <octave>5</octave>
        </pitch>
        <duration>1</duration>
        <voice>1</voice>
        <type>quarter</type>
        <notehead>normal</notehead>
      </note>
      <note>
        <pitch>
          <step>A</step>
          <octave>4</octave>
        </pitch>
        <duration>1</duration>
        <voice>1</voice>
        <type>quarter</type>
        <notehead>normal</notehead>
      </note>
      <note>
        <pitch>
          <step>C</step>
          <octave>5</octave>
        </pitch>
        <duration>1</duration>
        <voice>1</voice>
        <type>quarter</type>
        <notehead>normal</notehead>
      </note>
    </measure>
    <measure number="18">
      <attributes>
        <divisions>1</divisions>
      </attributes>
      <note>
        <pitch>
          <step>A</step>
          <octave>4</octave>
        </pitch>
        <duration>1</duration>
        <voice>1</voice>
        <type>quarter</type>
        <notehead>cluster</notehead>
        <lyric>
          <text>cluster</text>
        </lyric>
      </note>
      <note>
        <pitch>
          <step>C</step>
          <octave>5</octave>
        </pitch>
        <duration>1</duration>
        <voice>1</voice>
        <type>quarter</type>
        <notehead>cluster</notehead>
      </note>
      <note>
        <pitch>
          <step>A</step>
          <octave>4</octave>
        </pitch>
        <duration>1</duration>
        <voice>1</voice>
        <type>quarter</type>
        <notehead>cluster</notehead>
      </note>
      <note>
        <pitch>
          <step>C</step>
          <octave>5</octave>
        </pitch>
        <duration>1</duration>
        <voice>1</voice>
        <type>quarter</type>
        <notehead>cluster</notehead>
      </note>
    </measure>
    <measure number="19">
      <attributes>
        <divisions>1</divisions>
      </attributes>
      <note>
        <pitch>
          <step>A</step>
          <octave>4</octave>
        </pitch>
        <duration>1</duration>
        <voice>1</voice>
        <type>quarter</type>
        <notehead>none</notehead>
        <lyric>
          <text>none</text>
        </lyric>
      </note>
      <note>
        <pitch>
          <step>C</step>
          <octave>5</octave>
        </pitch>
        <duration>1</duration>
        <voice>1</voice>
        <type>quarter</type>
        <notehead>none</notehead>
      </note>
      <note>
        <pitch>
          <step>A</step>
          <octave>4</octave>
        </pitch>
        <duration>1</duration>
        <voice>1</voice>
        <type>quarter</type>
        <notehead>none</notehead>
      </note>
      <note>
        <pitch>
          <step>C</step>
          <octave>5</octave>
        </pitch>
        <duration>1</duration>
        <voice>1</voice>
        <type>quarter</type>
        <notehead>none</notehead>
      </note>
    </measure>
    <measure number="20">
      <attributes>
        <divisions>1</divisions>
      </attributes>
      <note>
        <pitch>
          <step>A</step>
          <octave>4</octave>
        </pitch>
        <duration>2</duration>
        <voice>1</voice>
        <type>half</type>
        <notehead>slash</notehead>
        <lyric>
          <text>slash</text>
        </lyric>
      </note>
      <note>
        <pitch>
          <step>A</step>
          <octave>4</octave>
        </pitch>
        <duration>2</duration>
        <voice>1</voice>
        <type>half</type>
        <notehead>slash</notehead>
      </note>
    </measure>
    <measure number="21">
      <attributes>
        <divisions>1</divisions>
      </attributes>
      <note>
        <pitch>
          <step>A</step>
          <octave>4</octave>
        </pitch>
        <duration>2</duration>
        <voice>1</voice>
        <type>half</type>
        <notehead>triangle</notehead>
        <lyric>
          <text>triangle</text>
        </lyric>
      </note>
      <note>
        <pitch>
          <step>A</step>
          <octave>4</octave>
        </pitch>
        <duration>2</duration>
        <voice>1</voice>
        <type>half</type>
        <notehead>triangle</notehead>
      </note>
    </measure>
    <measure number="22">
      <attributes>
        <divisions>1</divisions>
      </attributes>
      <note>
        <pitch>
          <step>A</step>
          <octave>4</octave>
        </pitch>
        <duration>2</duration>
        <voice>1</voice>
        <type>half</type>
        <notehead>diamond</notehead>
        <lyric>
          <text>diamond</text>
        </lyric>
      </note>
      <note>
        <pitch>
          <step>A</step>
          <octave>4</octave>
        </pitch>
        <duration>2</duration>
        <voice>1</voice>
        <type>half</type>
        <notehead>diamond</notehead>
      </note>
    </measure>
    <measure number="23">
      <attributes>
        <divisions>1</divisions>
      </attributes>
      <note>
        <pitch>
          <step>A</step>
          <octave>4</octave>
        </pitch>
        <duration>2</duration>
        <voice>1</voice>
        <type>half</type>
        <notehead>square</notehead>
        <lyric>
          <text>square</text>
        </lyric>
      </note>
      <note>
        <pitch>
          <step>A</step>
          <octave>4</octave>
        </pitch>
        <duration>2</duration>
        <voice>1</voice>
        <type>half</type>
        <notehead>square</notehead>
      </note>
    </measure>
    <measure number="24">
      <attributes>
        <divisions>1</divisions>
      </attributes>
      <note>
        <pitch>
          <step>A</step>
          <octave>4</octave>
        </pitch>
        <duration>2</duration>
        <voice>1</voice>
        <type>half</type>
        <notehead>rectangle</notehead>
        <lyric>
          <text>rectangle</text>
        </lyric>
      </note>
      <note>
        <pitch>
          <step>A</step>
          <octave>4</octave>
        </pitch>
        <duration>2</duration>
        <voice>1</voice>
        <type>half</type>
        <notehead>rectangle</notehead>
      </note>
    </measure>
    <measure number="25">
      <attributes>
        <divisions>1</divisions>
      </attributes>
      <note>
        <pitch>
          <step>A</step>
          <octave>4</octave>
        </pitch>
        <duration>2</duration>
        <voice>1</voice>
        <type>half</type>
        <notehead>cross</notehead>
        <lyric>
          <text>cross</text>
        </lyric>
      </note>
      <note>
        <pitch>
          <step>A</step>
          <octave>4</octave>
        </pitch>
        <duration>2</duration>
        <voice>1</voice>
        <type>half</type>
        <notehead>cross</notehead>
      </note>
    </measure>
    <measure number="26">
      <attributes>
        <divisions>1</divisions>
      </attributes>
      <note>
        <pitch>
          <step>A</step>
          <octave>4</octave>
        </pitch>
        <duration>2</duration>
        <voice>1</voice>
        <type>half</type>
        <notehead>x</notehead>
        <lyric>
          <text>x</text>
        </lyric>
      </note>
      <note>
        <pitch>
          <step>A</step>
          <octave>4</octave>
        </pitch>
        <duration>2</duration>
        <voice>1</voice>
        <type>half</type>
        <notehead>x</notehead>
      </note>
    </measure>
    <measure number="27">
      <attributes>
        <divisions>1</divisions>
      </attributes>
      <note>
        <pitch>
          <step>A</step>
          <octave>4</octave>
        </pitch>
        <duration>2</duration>
        <voice>1</voice>
        <type>half</type>
        <notehead>circle dot</notehead>
        <lyric>
          <text>circle dot</text>
        </lyric>
      </note>
      <note>
        <pitch>
          <step>A</step>
          <octave>4</octave>
        </pitch>
        <duration>2</duration>
        <voice>1</voice>
        <type>half</type>
        <notehead>circle dot</notehead>
      </note>
    </measure>
    <measure number="28">
      <attributes>
        <divisions>1</divisions>
      </attributes>
      <note>
        <pitch>
          <step>A</step>
          <octave>4</octave>
        </pitch>
        <duration>2</duration>
        <voice>1</voice>
        <type>half</type>
        <notehead>circle-x</notehead>
        <lyric>
          <text>circle-x</text>
        </lyric>
      </note>
      <note>
        <pitch>
          <step>A</step>
          <octave>4</octave>
        </pitch>
        <duration>2</duration>
        <voice>1</voice>
        <type>half</type>
        <notehead>circle-x</notehead>
      </note>
    </measure>
    <measure number="29">
      <attributes>
        <divisions>1</divisions>
      </attributes>
      <note>
        <pitch>
          <step>A</step>
          <octave>4</octave>
        </pitch>
        <duration>2</duration>
        <voice>1</voice>
        <type>half</type>
        <notehead>circled</notehead>
        <lyric>
          <text>circled</text>
        </lyric>
      </note>
      <note>
        <pitch>
          <step>A</step>
          <octave>4</octave>
        </pitch>
        <duration>2</duration>
        <voice>1</voice>
        <type>half</type>
        <notehead>circled</notehead>
      </note>
    </measure>
    <measure number="30">
      <attributes>
        <divisions>1</divisions>
      </attributes>
      <note>
        <pitch>
          <step>A</step>
          <octave>4</octave>
        </pitch>
        <duration>2</duration>
        <voice>1</voice>
        <type>half</type>
        <notehead>inverted triangle</notehead>
        <lyric>
          <text>inverted triangle</text>
        </lyric>
      </note>
      <note>
        <pitch>
          <step>A</step>
          <octave>4</octave>
        </pitch>
        <duration>2</duration>
        <voice>1</voice>
        <type>half</type>
        <notehead>inverted triangle</notehead>
      </note>
    </measure>
    <measure number="31">
      <attributes>
        <divisions>1</divisions>
      </attributes>
      <note>
        <pitch>
          <step>A</step>
          <octave>4</octave>
        </pitch>
        <duration>2</duration>
        <voice>1</voice>
        <type>half</type>
        <notehead>left triangle</notehead>
        <lyric>
          <text>left triangle</text>
        </lyric>
      </note>
      <note>
        <pitch>
          <step>A</step>
          <octave>4</octave>
        </pitch>
        <duration>2</duration>
        <voice>1</voice>
        <type>half</type>
        <notehead>left triangle</notehead>
      </note>
    </measure>
    <measure number="32">
      <attributes>
        <divisions>1</divisions>
      </attributes>
      <note>
        <pitch>
          <step>A</step>
          <octave>4</octave>
        </pitch>
        <duration>2</duration>
        <voice>1</voice>
        <type>half</type>
        <notehead>arrow down</notehead>
        <lyric>
          <text>arrow down</text>
        </lyric>
      </note>
      <note>
        <pitch>
          <step>A</step>
          <octave>4</octave>
        </pitch>
        <duration>2</duration>
        <voice>1</voice>
        <type>half</type>
        <notehead>arrow down</notehead>
      </note>
    </measure>
    <measure number="33">
      <attributes>
        <divisions>1</divisions>
      </attributes>
      <note>
        <pitch>
          <step>A</step>
          <octave>4</octave>
        </pitch>
        <duration>2</duration>
        <voice>1</voice>
        <type>half</type>
        <notehead>arrow up</notehead>
        <lyric>
          <text>arrow up</text>
        </lyric>
      </note>
      <note>
        <pitch>
          <step>A</step>
          <octave>4</octave>
        </pitch>
        <duration>2</duration>
        <voice>1</voice>
        <type>half</type>
        <notehead>arrow up</notehead>
      </note>
    </measure>
    <measure number="34">
      <attributes>
        <divisions>1</divisions>
      </attributes>
      <note>
        <pitch>
          <step>A</step>
          <octave>4</octave>
        </pitch>
        <duration>2</duration>
        <voice>1</voice>
        <type>half</type>
        <notehead>slashed</notehead>
        <lyric>
          <text>slashed</text>
        </lyric>
      </note>
      <note>
        <pitch>
          <step>A</step>
          <octave>4</octave>
        </pitch>
        <duration>2</duration>
        <voice>1</voice>
        <type>half</type>
        <notehead>slashed</notehead>
      </note>
    </measure>
    <measure number="35">
      <attributes>
        <divisions>1</divisions>
      </attributes>
      <note>
        <pitch>
          <step>A</step>
          <octave>4</octave>
        </pitch>
        <duration>2</duration>
        <voice>1</voice>
        <type>half</type>
        <notehead>back slashed</notehead>
        <lyric>
          <text>back slashed</text>
        </lyric>
      </note>
      <note>
        <pitch>
          <step>A</step>
          <octave>4</octave>
        </pitch>
        <duration>2</duration>
        <voice>1</voice>
        <type>half</type>
        <notehead>back slashed</notehead>
      </note>
    </measure>
    <measure number="36">
      <attributes>
        <divisions>1</divisions>
      </attributes>
      <note>
        <pitch>
          <step>A</step>
          <octave>4</octave>
        </pitch>
        <duration>2</duration>
        <voice>1</voice>
        <type>half</type>
        <notehead>normal</notehead>
        <lyric>
          <text>normal</text>
        </lyric>
      </note>
      <note>
        <pitch>
          <step>A</step>
          <octave>4</octave>
        </pitch>
        <duration>2</duration>
        <voice>1</voice>
        <type>half</type>
        <notehead>normal</notehead>
      </note>
    </measure>
    <measure number="37">
      <attributes>
        <divisions>1</divisions>
      </attributes>
      <note>
        <pitch>
          <step>A</step>
          <octave>4</octave>
        </pitch>
        <duration>2</duration>
        <voice>1</voice>
        <type>half</type>
        <notehead>cluster</notehead>
        <lyric>
          <text>cluster</text>
        </lyric>
      </note>
      <note>
        <pitch>
          <step>A</step>
          <octave>4</octave>
        </pitch>
        <duration>2</duration>
        <voice>1</voice>
        <type>half</type>
        <notehead>cluster</notehead>
      </note>
    </measure>
    <measure number="38">
      <attributes>
        <divisions>1</divisions>
      </attributes>
      <note>
        <pitch>
          <step>A</step>
          <octave>4</octave>
        </pitch>
        <duration>2</duration>
        <voice>1</voice>
        <type>half</type>
        <notehead>none</notehead>
        <lyric>
          <text>none</text>
        </lyric>
      </note>
      <note>
        <pitch>
          <step>A</step>
          <octave>4</octave>
        </pitch>
        <duration>2</duration>
        <voice>1</voice>
        <type>half</type>
        <notehead>none</notehead>
      </note>
    </measure>
    <measure number="39">
      <attributes>
        <divisions>1</divisions>
        <time>
          <beats>2</beats>
          <beat-type>4</beat-type>
        </time>
      </attributes>
      <note>
        <pitch>
          <step>A</step>
          <octave>4</octave>
        </pitch>
        <duration>2</duration>
        <tie type="start" />
        <voice>1</voice>
        <type>half</type>
        <notehead>slash</notehead>
        <notations>
          <tied type="start" />
        </notations>
        <lyric>
          <text>slash</text>
        </lyric>
      </note>
    </measure>
    <measure number="40">
      <attributes>
        <divisions>1</divisions>
      </attributes>
      <note>
        <pitch>
          <step>A</step>
          <octave>4</octave>
        </pitch>
        <duration>1</duration>
        <tie type="stop" />
        <voice>1</voice>
        <type>quarter</type>
        <notehead>slash</notehead>
        <notations>
          <tied type="stop" />
        </notations>
      </note>
      <note>
        <pitch>
          <step>A</step>
          <octave>4</octave>
        </pitch>
        <duration>1</duration>
        <tie type="start" />
        <voice>1</voice>
        <type>quarter</type>
        <notehead>triangle</notehead>
        <notations>
          <tied type="start" />
        </notations>
        <lyric>
          <text>triangle</text>
        </lyric>
      </note>
    </measure>
    <measure number="41">
      <attributes>
        <divisions>1</divisions>
      </attributes>
      <note>
        <pitch>
          <step>A</step>
          <octave>4</octave>
        </pitch>
        <duration>2</duration>
        <tie type="stop" />
        <voice>1</voice>
        <type>half</type>
        <notehead>triangle</notehead>
        <notations>
          <tied type="stop" />
        </notations>
      </note>
    </measure>
    <measure number="42">
      <attributes>
        <divisions>1</divisions>
      </attributes>
      <note>
        <pitch>
          <step>A</step>
          <octave>4</octave>
        </pitch>
        <duration>2</duration>
        <tie type="start" />
        <voice>1</voice>
        <type>half</type>
        <notehead>diamond</notehead>
        <notations>
          <tied type="start" />
        </notations>
        <lyric>
          <text>diamond</text>
        </lyric>
      </note>
    </measure>
    <measure number="43">
      <attributes>
        <divisions>1</divisions>
      </attributes>
      <note>
        <pitch>
          <step>A</step>
          <octave>4</octave>
        </pitch>
        <duration>1</duration>
        <tie type="stop" />
        <voice>1</voice>
        <type>quarter</type>
        <notehead>diamond</notehead>
        <notations>
          <tied type="stop" />
        </notations>
      </note>
      <note>
        <pitch>
          <step>A</step>
          <octave>4</octave>
        </pitch>
        <duration>1</duration>
        <tie type="start" />
        <voice>1</voice>
        <type>quarter</type>
        <notehead>square</notehead>
        <notations>
          <tied type="start" />
        </notations>
        <lyric>
          <text>square</text>
        </lyric>
      </note>
    </measure>
    <measure number="44">
      <attributes>
        <divisions>1</divisions>
      </attributes>
      <note>
        <pitch>
          <step>A</step>
          <octave>4</octave>
        </pitch>
        <duration>2</duration>
        <tie type="stop" />
        <voice>1</voice>
        <type>half</type>
        <notehead>square</notehead>
        <notations>
          <tied type="stop" />
        </notations>
      </note>
    </measure>
    <measure number="45">
      <attributes>
        <divisions>1</divisions>
      </attributes>
      <note>
        <pitch>
          <step>A</step>
          <octave>4</octave>
        </pitch>
        <duration>2</duration>
        <tie type="start" />
        <voice>1</voice>
        <type>half</type>
        <notehead>rectangle</notehead>
        <notations>
          <tied type="start" />
        </notations>
        <lyric>
          <text>rectangle</text>
        </lyric>
      </note>
    </measure>
    <measure number="46">
      <attributes>
        <divisions>1</divisions>
      </attributes>
      <note>
        <pitch>
          <step>A</step>
          <octave>4</octave>
        </pitch>
        <duration>1</duration>
        <tie type="stop" />
        <voice>1</voice>
        <type>quarter</type>
        <notehead>rectangle</notehead>
        <notations>
          <tied type="stop" />
        </notations>
      </note>
      <note>
        <pitch>
          <step>A</step>
          <octave>4</octave>
        </pitch>
        <duration>1</duration>
        <tie type="start" />
        <voice>1</voice>
        <type>quarter</type>
        <notehead>cross</notehead>
        <notations>
          <tied type="start" />
        </notations>
        <lyric>
          <text>cross</text>
        </lyric>
      </note>
    </measure>
    <measure number="47">
      <attributes>
        <divisions>1</divisions>
      </attributes>
      <note>
        <pitch>
          <step>A</step>
          <octave>4</octave>
        </pitch>
        <duration>2</duration>
        <tie type="stop" />
        <voice>1</voice>
        <type>half</type>
        <notehead>cross</notehead>
        <notations>
          <tied type="stop" />
        </notations>
      </note>
    </measure>
    <measure number="48">
      <attributes>
        <divisions>1</divisions>
      </attributes>
      <note>
        <pitch>
          <step>A</step>
          <octave>4</octave>
        </pitch>
        <duration>2</duration>
        <tie type="start" />
        <voice>1</voice>
        <type>half</type>
        <notehead>x</notehead>
        <notations>
          <tied type="start" />
        </notations>
        <lyric>
          <text>x</text>
        </lyric>
      </note>
    </measure>
    <measure number="49">
      <attributes>
        <divisions>1</divisions>
      </attributes>
      <note>
        <pitch>
          <step>A</step>
          <octave>4</octave>
        </pitch>
        <duration>1</duration>
        <tie type="stop" />
        <voice>1</voice>
        <type>quarter</type>
        <notehead>x</notehead>
        <notations>
          <tied type="stop" />
        </notations>
      </note>
      <note>
        <pitch>
          <step>A</step>
          <octave>4</octave>
        </pitch>
        <duration>1</duration>
        <tie type="start" />
        <voice>1</voice>
        <type>quarter</type>
        <notehead>circle dot</notehead>
        <notations>
          <tied type="start" />
        </notations>
        <lyric>
          <text>circle dot</text>
        </lyric>
      </note>
    </measure>
    <measure number="50">
      <attributes>
        <divisions>1</divisions>
      </attributes>
      <note>
        <pitch>
          <step>A</step>
          <octave>4</octave>
        </pitch>
        <duration>2</duration>
        <tie type="stop" />
        <voice>1</voice>
        <type>half</type>
        <notehead>circle dot</notehead>
        <notations>
          <tied type="stop" />
        </notations>
      </note>
    </measure>
    <measure number="51">
      <attributes>
        <divisions>1</divisions>
      </attributes>
      <note>
        <pitch>
          <step>A</step>
          <octave>4</octave>
        </pitch>
        <duration>2</duration>
        <tie type="start" />
        <voice>1</voice>
        <type>half</type>
        <notehead>circle-x</notehead>
        <notations>
          <tied type="start" />
        </notations>
        <lyric>
          <text>circle-x</text>
        </lyric>
      </note>
    </measure>
    <measure number="52">
      <attributes>
        <divisions>1</divisions>
      </attributes>
      <note>
        <pitch>
          <step>A</step>
          <octave>4</octave>
        </pitch>
        <duration>1</duration>
        <tie type="stop" />
        <voice>1</voice>
        <type>quarter</type>
        <notehead>circle-x</notehead>
        <notations>
          <tied type="stop" />
        </notations>
      </note>
      <note>
        <pitch>
          <step>A</step>
          <octave>4</octave>
        </pitch>
        <duration>1</duration>
        <tie type="start" />
        <voice>1</voice>
        <type>quarter</type>
        <notehead>circled</notehead>
        <notations>
          <tied type="start" />
        </notations>
        <lyric>
          <text>circled</text>
        </lyric>
      </note>
    </measure>
    <measure number="53">
      <attributes>
        <divisions>1</divisions>
      </attributes>
      <note>
        <pitch>
          <step>A</step>
          <octave>4</octave>
        </pitch>
        <duration>2</duration>
        <tie type="stop" />
        <voice>1</voice>
        <type>half</type>
        <notehead>circled</notehead>
        <notations>
          <tied type="stop" />
        </notations>
      </note>
    </measure>
    <measure number="54">
      <attributes>
        <divisions>1</divisions>
      </attributes>
      <note>
        <pitch>
          <step>A</step>
          <octave>4</octave>
        </pitch>
        <duration>2</duration>
        <tie type="start" />
        <voice>1</voice>
        <type>half</type>
        <notehead>inverted triangle</notehead>
        <notations>
          <tied type="start" />
        </notations>
        <lyric>
          <text>inverted triangle</text>
        </lyric>
      </note>
    </measure>
    <measure number="55">
      <attributes>
        <divisions>1</divisions>
      </attributes>
      <note>
        <pitch>
          <step>A</step>
          <octave>4</octave>
        </pitch>
        <duration>1</duration>
        <tie type="stop" />
        <voice>1</voice>
        <type>quarter</type>
        <notehead>inverted triangle</notehead>
        <notations>
          <tied type="stop" />
        </notations>
      </note>
      <note>
        <pitch>
          <step>A</step>
          <octave>4</octave>
        </pitch>
        <duration>1</duration>
        <tie type="start" />
        <voice>1</voice>
        <type>quarter</type>
        <notehead>left triangle</notehead>
        <notations>
          <tied type="start" />
        </notations>
        <lyric>
          <text>left triangle</text>
        </lyric>
      </note>
    </measure>
    <measure number="56">
      <attributes>
        <divisions>1</divisions>
      </attributes>
      <note>
        <pitch>
          <step>A</step>
          <octave>4</octave>
        </pitch>
        <duration>2</duration>
        <tie type="stop" />
        <voice>1</voice>
        <type>half</type>
        <notehead>left triangle</notehead>
        <notations>
          <tied type="stop" />
        </notations>
      </note>
    </measure>
    <measure number="57">
      <attributes>
        <divisions>1</divisions>
      </attributes>
      <note>
        <pitch>
          <step>A</step>
          <octave>4</octave>
        </pitch>
        <duration>2</duration>
        <tie type="start" />
        <voice>1</voice>
        <type>half</type>
        <notehead>arrow down</notehead>
        <notations>
          <tied type="start" />
        </notations>
        <lyric>
          <text>arrow down</text>
        </lyric>
      </note>
    </measure>
    <measure number="58">
      <attributes>
        <divisions>1</divisions>
      </attributes>
      <note>
        <pitch>
          <step>A</step>
          <octave>4</octave>
        </pitch>
        <duration>1</duration>
        <tie type="stop" />
        <voice>1</voice>
        <type>quarter</type>
        <notehead>arrow down</notehead>
        <notations>
          <tied type="stop" />
        </notations>
      </note>
      <note>
        <pitch>
          <step>A</step>
          <octave>4</octave>
        </pitch>
        <duration>1</duration>
        <tie type="start" />
        <voice>1</voice>
        <type>quarter</type>
        <notehead>arrow up</notehead>
        <notations>
          <tied type="start" />
        </notations>
        <lyric>
          <text>arrow up</text>
        </lyric>
      </note>
    </measure>
    <measure number="59">
      <attributes>
        <divisions>1</divisions>
      </attributes>
      <note>
        <pitch>
          <step>A</step>
          <octave>4</octave>
        </pitch>
        <duration>2</duration>
        <tie type="stop" />
        <voice>1</voice>
        <type>half</type>
        <notehead>arrow up</notehead>
        <notations>
          <tied type="stop" />
        </notations>
      </note>
    </measure>
    <measure number="60">
      <attributes>
        <divisions>1</divisions>
      </attributes>
      <note>
        <pitch>
          <step>A</step>
          <octave>4</octave>
        </pitch>
        <duration>2</duration>
        <tie type="start" />
        <voice>1</voice>
        <type>half</type>
        <notehead>slashed</notehead>
        <notations>
          <tied type="start" />
        </notations>
        <lyric>
          <text>slashed</text>
        </lyric>
      </note>
    </measure>
    <measure number="61">
      <attributes>
        <divisions>1</divisions>
      </attributes>
      <note>
        <pitch>
          <step>A</step>
          <octave>4</octave>
        </pitch>
        <duration>1</duration>
        <tie type="stop" />
        <voice>1</voice>
        <type>quarter</type>
        <notehead>slashed</notehead>
        <notations>
          <tied type="stop" />
        </notations>
      </note>
      <note>
        <pitch>
          <step>A</step>
          <octave>4</octave>
        </pitch>
        <duration>1</duration>
        <tie type="start" />
        <voice>1</voice>
        <type>quarter</type>
        <notehead>back slashed</notehead>
        <notations>
          <tied type="start" />
        </notations>
        <lyric>
          <text>back slashed</text>
        </lyric>
      </note>
    </measure>
    <measure number="62">
      <attributes>
        <divisions>1</divisions>
      </attributes>
      <note>
        <pitch>
          <step>A</step>
          <octave>4</octave>
        </pitch>
        <duration>2</duration>
        <tie type="stop" />
        <voice>1</voice>
        <type>half</type>
        <notehead>back slashed</notehead>
        <notations>
          <tied type="stop" />
        </notations>
      </note>
    </measure>
    <measure number="63">
      <attributes>
        <divisions>1</divisions>
      </attributes>
      <note>
        <pitch>
          <step>A</step>
          <octave>4</octave>
        </pitch>
        <duration>2</duration>
        <tie type="start" />
        <voice>1</voice>
        <type>half</type>
        <notehead>normal</notehead>
        <notations>
          <tied type="start" />
        </notations>
        <lyric>
          <text>normal</text>
        </lyric>
      </note>
    </measure>
    <measure number="64">
      <attributes>
        <divisions>1</divisions>
      </attributes>
      <note>
        <pitch>
          <step>A</step>
          <octave>4</octave>
        </pitch>
        <duration>1</duration>
        <tie type="stop" />
        <voice>1</voice>
        <type>quarter</type>
        <notehead>normal</notehead>
        <notations>
          <tied type="stop" />
        </notations>
      </note>
      <note>
        <pitch>
          <step>A</step>
          <octave>4</octave>
        </pitch>
        <duration>1</duration>
        <tie type="start" />
        <voice>1</voice>
        <type>quarter</type>
        <notehead>cluster</notehead>
        <notations>
          <tied type="start" />
        </notations>
        <lyric>
          <text>cluster</text>
        </lyric>
      </note>
    </measure>
    <measure number="65">
      <attributes>
        <divisions>1</divisions>
      </attributes>
      <note>
        <pitch>
          <step>A</step>
          <octave>4</octave>
        </pitch>
        <duration>2</duration>
        <tie type="stop" />
        <voice>1</voice>
        <type>half</type>
        <notehead>cluster</notehead>
        <notations>
          <tied type="stop" />
        </notations>
      </note>
    </measure>
    <measure number="66">
      <attributes>
        <divisions>1</divisions>
      </attributes>
      <note>
        <pitch>
          <step>A</step>
          <octave>4</octave>
        </pitch>
        <duration>2</duration>
        <tie type="start" />
        <voice>1</voice>
        <type>half</type>
        <notehead>none</notehead>
        <notations>
          <tied type="start" />
        </notations>
        <lyric>
          <text>none</text>
        </lyric>
      </note>
    </measure>
    <measure number="67">
      <attributes>
        <divisions>1</divisions>
      </attributes>
      <note>
        <pitch>
          <step>A</step>
          <octave>4</octave>
        </pitch>
        <duration>1</duration>
        <tie type="stop" />
        <voice>1</voice>
        <type>quarter</type>
        <notehead>none</notehead>
        <notations>
          <tied type="stop" />
        </notations>
      </note>
      <note>
        <rest />
        <duration>1</duration>
        <voice>1</voice>
        <type>quarter</type>
      </note>
    </measure>
    <measure number="68">
      <attributes>
        <divisions>1</divisions>
        <time>
          <beats>4</beats>
          <beat-type>4</beat-type>
        </time>
      </attributes>
      <note>
        <pitch>
          <step>A</step>
          <octave>4</octave>
        </pitch>
        <duration>1</duration>
        <voice>1</voice>
        <type>quarter</type>
        <notehead>do</notehead>
        <lyric>
          <text>do</text>
        </lyric>
      </note>
      <note>
        <pitch>
          <step>C</step>
          <octave>5</octave>
        </pitch>
        <duration>1</duration>
        <voice>1</voice>
        <type>quarter</type>
        <notehead>do</notehead>
      </note>
      <note>
        <pitch>
          <step>A</step>
          <octave>4</octave>
        </pitch>
        <duration>1</duration>
        <voice>1</voice>
        <type>quarter</type>
        <notehead>do</notehead>
      </note>
      <note>
        <pitch>
          <step>C</step>
          <octave>5</octave>
        </pitch>
        <duration>1</duration>
        <voice>1</voice>
        <type>quarter</type>
        <notehead>do</notehead>
      </note>
    </measure>
    <measure number="69">
      <attributes>
        <divisions>1</divisions>
      </attributes>
      <note>
        <pitch>
          <step>A</step>
          <octave>4</octave>
        </pitch>
        <duration>1</duration>
        <voice>1</voice>
        <type>quarter</type>
        <notehead>re</notehead>
        <lyric>
          <text>re</text>
        </lyric>
      </note>
      <note>
        <pitch>
          <step>C</step>
          <octave>5</octave>
        </pitch>
        <duration>1</duration>
        <voice>1</voice>
        <type>quarter</type>
        <notehead>re</notehead>
      </note>
      <note>
        <pitch>
          <step>A</step>
          <octave>4</octave>
        </pitch>
        <duration>1</duration>
        <voice>1</voice>
        <type>quarter</type>
        <notehead>re</notehead>
      </note>
      <note>
        <pitch>
          <step>C</step>
          <octave>5</octave>
        </pitch>
        <duration>1</duration>
        <voice>1</voice>
        <type>quarter</type>
        <notehead>re</notehead>
      </note>
    </measure>
    <measure number="70">
      <attributes>
        <divisions>1</divisions>
      </attributes>
      <note>
        <pitch>
          <step>A</step>
          <octave>4</octave>
        </pitch>
        <duration>1</duration>
        <voice>1</voice>
        <type>quarter</type>
        <notehead>mi</notehead>
        <lyric>
          <text>mi</text>
        </lyric>
      </note>
      <note>
        <pitch>
          <step>C</step>
          <octave>5</octave>
        </pitch>
        <duration>1</duration>
        <voice>1</voice>
        <type>quarter</type>
        <notehead>mi</notehead>
      </note>
      <note>
        <pitch>
          <step>A</step>
          <octave>4</octave>
        </pitch>
        <duration>1</duration>
        <voice>1</voice>
        <type>quarter</type>
        <notehead>mi</notehead>
      </note>
      <note>
        <pitch>
          <step>C</step>
          <octave>5</octave>
        </pitch>
        <duration>1</duration>
        <voice>1</voice>
        <type>quarter</type>
        <notehead>mi</notehead>
      </note>
    </measure>
    <measure number="71">
      <attributes>
        <divisions>1</divisions>
      </attributes>
      <note>
        <pitch>
          <step>A</step>
          <octave>4</octave>
        </pitch>
        <duration>1</duration>
        <voice>1</voice>
        <type>quarter</type>
        <notehead>fa</notehead>
        <lyric>
          <text>fa</text>
        </lyric>
      </note>
      <note>
        <pitch>
          <step>C</step>
          <octave>5</octave>
        </pitch>
        <duration>1</duration>
        <voice>1</voice>
        <type>quarter</type>
        <notehead>fa</notehead>
      </note>
      <note>
        <pitch>
          <step>A</step>
          <octave>4</octave>
        </pitch>
        <duration>1</duration>
        <voice>1</voice>
        <type>quarter</type>
        <notehead>fa</notehead>
      </note>
      <note>
        <pitch>
          <step>C</step>
          <octave>5</octave>
        </pitch>
        <duration>1</duration>
        <voice>1</voice>
        <type>quarter</type>
        <notehead>fa</notehead>
      </note>
    </measure>
    <measure number="72">
      <attributes>
        <divisions>1</divisions>
      </attributes>
      <note>
        <pitch>
          <step>A</step>
          <octave>4</octave>
        </pitch>
        <duration>1</duration>
        <voice>1</voice>
        <type>quarter</type>
        <notehead>fa up</notehead>
        <lyric>
          <text>fa up</text>
        </lyric>
      </note>
      <note>
        <pitch>
          <step>C</step>
          <octave>5</octave>
        </pitch>
        <duration>1</duration>
        <voice>1</voice>
        <type>quarter</type>
        <notehead>fa up</notehead>
      </note>
      <note>
        <pitch>
          <step>A</step>
          <octave>4</octave>
        </pitch>
        <duration>1</duration>
        <voice>1</voice>
        <type>quarter</type>
        <notehead>fa up</notehead>
      </note>
      <note>
        <pitch>
          <step>C</step>
          <octave>5</octave>
        </pitch>
        <duration>1</duration>
        <voice>1</voice>
        <type>quarter</type>
        <notehead>fa up</notehead>
      </note>
    </measure>
    <measure number="73">
      <attributes>
        <divisions>1</divisions>
      </attributes>
      <note>
        <pitch>
          <step>A</step>
          <octave>4</octave>
        </pitch>
        <duration>1</duration>
        <voice>1</voice>
        <type>quarter</type>
        <notehead>so</notehead>
        <lyric>
          <text>so</text>
        </lyric>
      </note>
      <note>
        <pitch>
          <step>C</step>
          <octave>5</octave>
        </pitch>
        <duration>1</duration>
        <voice>1</voice>
        <type>quarter</type>
        <notehead>so</notehead>
      </note>
      <note>
        <pitch>
          <step>A</step>
          <octave>4</octave>
        </pitch>
        <duration>1</duration>
        <voice>1</voice>
        <type>quarter</type>
        <notehead>so</notehead>
      </note>
      <note>
        <pitch>
          <step>C</step>
          <octave>5</octave>
        </pitch>
        <duration>1</duration>
        <voice>1</voice>
        <type>quarter</type>
        <notehead>so</notehead>
      </note>
    </measure>
    <measure number="74">
      <attributes>
        <divisions>1</divisions>
      </attributes>
      <note>
        <pitch>
          <step>A</step>
          <octave>4</octave>
        </pitch>
        <duration>1</duration>
        <voice>1</voice>
        <type>quarter</type>
        <notehead>la</notehead>
        <lyric>
          <text>la</text>
        </lyric>
      </note>
      <note>
        <pitch>
          <step>C</step>
          <octave>5</octave>
        </pitch>
        <duration>1</duration>
        <voice>1</voice>
        <type>quarter</type>
        <notehead>la</notehead>
      </note>
      <note>
        <pitch>
          <step>A</step>
          <octave>4</octave>
        </pitch>
        <duration>1</duration>
        <voice>1</voice>
        <type>quarter</type>
        <notehead>la</notehead>
      </note>
      <note>
        <pitch>
          <step>C</step>
          <octave>5</octave>
        </pitch>
        <duration>1</duration>
        <voice>1</voice>
        <type>quarter</type>
        <notehead>la</notehead>
      </note>
    </measure>
    <measure number="75">
      <attributes>
        <divisions>1</divisions>
      </attributes>
      <note>
        <pitch>
          <step>A</step>
          <octave>4</octave>
        </pitch>
        <duration>1</duration>
        <voice>1</voice>
        <type>quarter</type>
        <notehead>ti</notehead>
        <lyric>
          <text>ti</text>
        </lyric>
      </note>
      <note>
        <pitch>
          <step>C</step>
          <octave>5</octave>
        </pitch>
        <duration>1</duration>
        <voice>1</voice>
        <type>quarter</type>
        <notehead>ti</notehead>
      </note>
      <note>
        <pitch>
          <step>A</step>
          <octave>4</octave>
        </pitch>
        <duration>1</duration>
        <voice>1</voice>
        <type>quarter</type>
        <notehead>ti</notehead>
      </note>
      <note>
        <pitch>
          <step>C</step>
          <octave>5</octave>
        </pitch>
        <duration>1</duration>
        <voice>1</voice>
        <type>quarter</type>
        <notehead>ti</notehead>
      </note>
    </measure>
    <measure number="76">
      <attributes>
        <divisions>1</divisions>
      </attributes>
      <note>
        <pitch>
          <step>A</step>
          <octave>3</octave>
        </pitch>
        <duration>1</duration>
        <voice>1</voice>
        <type>quarter</type>
        <notehead>do</notehead>
        <lyric>
          <text>do</text>
        </lyric>
      </note>
      <note>
        <pitch>
          <step>B</step>
          <octave>3</octave>
        </pitch>
        <duration>1</duration>
        <voice>1</voice>
        <type>quarter</type>
        <notehead>re</notehead>
        <lyric>
          <text>re</text>
        </lyric>
      </note>
      <note>
        <pitch>
          <step>C</step>
          <octave>4</octave>
        </pitch>
        <duration>1</duration>
        <voice>1</voice>
        <type>quarter</type>
        <notehead>mi</notehead>
        <lyric>
          <text>mi</text>
        </lyric>
      </note>
      <note>
        <pitch>
          <step>D</step>
          <octave>4</octave>
        </pitch>
        <duration>1</duration>
        <voice>1</voice>
        <type>quarter</type>
        <notehead>fa</notehead>
        <lyric>
          <text>fa</text>
        </lyric>
      </note>
    </measure>
    <measure number="77">
      <attributes>
        <divisions>1</divisions>
      </attributes>
      <note>
        <pitch>
          <step>E</step>
          <octave>4</octave>
        </pitch>
        <duration>1</duration>
        <voice>1</voice>
        <type>quarter</type>
        <notehead>so</notehead>
        <lyric>
          <text>so</text>
        </lyric>
      </note>
      <note>
        <pitch>
          <step>F</step>
          <octave>4</octave>
        </pitch>
        <duration>1</duration>
        <voice>1</voice>
        <type>quarter</type>
        <notehead>la</notehead>
        <lyric>
          <text>la</text>
        </lyric>
      </note>
      <note>
        <pitch>
          <step>G</step>
          <octave>4</octave>
        </pitch>
        <duration>1</duration>
        <voice>1</voice>
        <type>quarter</type>
        <notehead>ti</notehead>
        <lyric>
          <text>ti</text>
        </lyric>
      </note>
      <note>
        <pitch>
          <step>A</step>
          <octave>4</octave>
        </pitch>
        <duration>1</duration>
        <voice>1</voice>
        <type>quarter</type>
        <notehead>do</notehead>
        <lyric>
          <text>do</text>
        </lyric>
      </note>
    </measure>
    <measure number="78">
      <attributes>
        <divisions>1</divisions>
      </attributes>
      <note>
        <pitch>
          <step>C</step>
          <octave>5</octave>
        </pitch>
        <duration>1</duration>
        <voice>1</voice>
        <type>quarter</type>
        <notehead>do</notehead>
        <lyric>
          <text>do</text>
        </lyric>
      </note>
      <note>
        <pitch>
          <step>D</step>
          <octave>5</octave>
        </pitch>
        <duration>1</duration>
        <voice>1</voice>
        <type>quarter</type>
        <notehead>re</notehead>
        <lyric>
          <text>re</text>
        </lyric>
      </note>
      <note>
        <pitch>
          <step>E</step>
          <octave>5</octave>
        </pitch>
        <duration>1</duration>
        <voice>1</voice>
        <type>quarter</type>
        <notehead>mi</notehead>
        <lyric>
          <text>mi</text>
        </lyric>
      </note>
      <note>
        <pitch>
          <step>F</step>
          <octave>5</octave>
        </pitch>
        <duration>1</duration>
        <voice>1</voice>
        <type>quarter</type>
        <notehead>fa</notehead>
        <lyric>
          <text>fa</text>
        </lyric>
      </note>
    </measure>
    <measure number="79">
      <attributes>
        <divisions>1</divisions>
      </attributes>
      <note>
        <pitch>
          <step>G</step>
          <octave>5</octave>
        </pitch>
        <duration>1</duration>
        <voice>1</voice>
        <type>quarter</type>
        <notehead>so</notehead>
        <lyric>
          <text>so</text>
        </lyric>
      </note>
      <note>
        <pitch>
          <step>A</step>
          <octave>5</octave>
        </pitch>
        <duration>1</duration>
        <voice>1</voice>
        <type>quarter</type>
        <notehead>la</notehead>
        <lyric>
          <text>la</text>
        </lyric>
      </note>
      <note>
        <pitch>
          <step>B</step>
          <octave>5</octave>
        </pitch>
        <duration>1</duration>
        <voice>1</voice>
        <type>quarter</type>
        <notehead>ti</notehead>
        <lyric>
          <text>ti</text>
        </lyric>
      </note>
      <note>
        <pitch>
          <step>C</step>
          <octave>6</octave>
        </pitch>
        <duration>1</duration>
        <voice>1</voice>
        <type>quarter</type>
        <notehead>do</notehead>
        <lyric>
          <text>do</text>
        </lyric>
      </note>
      <barline location="right">
        <bar-style>light-heavy</bar-style>
      </barline>
    </measure>
  </part>
</score-partwise>
